<?xml version="1.0" encoding="UTF-8"?>
<svg width="166px" height="165px" viewBox="0 0 166 165" version="1.1" xmlns="http://www.w3.org/2000/svg" xmlns:xlink="http://www.w3.org/1999/xlink">
    <!-- Generator: Sketch 48.1 (47250) - http://www.bohemiancoding.com/sketch -->
    <title>Untitled 3</title>
    <desc>Created with Sketch.</desc>
    <defs>
        <path d="M1.552,10.788 L1.552,10.787 L1.552,10.788 M1.552,10.779 C1.552,10.778 1.552,10.778 1.552,10.777 C1.552,10.778 1.552,10.778 1.552,10.779 M1.553,10.77 C1.553,10.768 1.553,10.767 1.553,10.766 C1.553,10.767 1.553,10.768 1.553,10.77 M1.553,10.76 C1.553,10.759 1.553,10.757 1.553,10.756 C1.553,10.757 1.553,10.758 1.553,10.76 M1.553,10.75 C1.553,10.748 1.553,10.746 1.554,10.745 C1.553,10.746 1.553,10.748 1.553,10.75 M1.554,10.74 C1.554,10.738 1.554,10.736 1.554,10.734 C1.554,10.736 1.554,10.738 1.554,10.74 M1.554,10.729 C1.554,10.727 1.554,10.725 1.554,10.722 C1.554,10.725 1.554,10.727 1.554,10.729 M1.554,10.719 C1.554,10.716 1.554,10.712 1.554,10.709 L1.574,0.679 L1.554,10.709 C1.554,10.712 1.554,10.716 1.554,10.719 M0.427,0.708 C0.323,0.708 0.218,0.708 0.114,0.707 L0.114,0.7 C0.219,0.701 0.322,0.708 0.427,0.708 M0.463,0.708 C0.836,0.707 1.203,0.686 1.574,0.679 C1.203,0.686 0.836,0.707 0.463,0.708" id="path-1"></path>
    </defs>
    <g id="Page-1" stroke="none" stroke-width="1" fill="none" fill-rule="evenodd">
        <path d="M83.427,134.513 C54.188,134.513 30.485,110.81 30.485,81.57 C30.485,52.331 54.188,28.627 83.427,28.627 C112.667,28.627 136.37,52.331 136.37,81.57 C136.37,110.81 112.667,134.513 83.427,134.513 Z" id="Fill-138" fill="#FFC700"></path>
        <path d="M11.786,122.141 C10.978,122.608 10.701,123.641 11.167,124.449 C11.48,124.991 12.048,125.294 12.632,125.294 C12.919,125.294 13.209,125.221 13.475,125.067 L33.621,113.436 C33.013,112.489 32.431,111.525 31.877,110.541 L11.786,122.141" id="Fill-139" fill="#FFF99A"></path>
        <path d="M31.742,127.207 C31.052,127.834 31,128.903 31.627,129.594 C31.96,129.961 32.419,130.148 32.879,130.148 C33.284,130.148 33.69,130.003 34.014,129.709 L41.318,123.08 C40.527,122.278 39.764,121.449 39.02,120.603 L31.742,127.207" id="Fill-140" fill="#FFF99A"></path>
        <path d="M17.291,102.491 C16.404,102.779 15.917,103.732 16.205,104.62 C16.437,105.334 17.099,105.789 17.812,105.789 C17.984,105.789 18.16,105.762 18.333,105.706 L28.126,102.534 C27.727,101.482 27.35,100.421 27.011,99.342 L17.291,102.491" id="Fill-141" fill="#FFF99A"></path>
        <path d="M33.872,147.72 C33.324,148.475 33.491,149.532 34.246,150.08 C34.546,150.298 34.894,150.403 35.238,150.403 C35.76,150.403 36.276,150.161 36.607,149.707 L50.444,130.661 C49.508,130.031 48.596,129.369 47.699,128.689 L33.872,147.72" id="Fill-142" fill="#FFF99A"></path>
        <path d="M6.244,56.26 C5.358,55.974 4.403,56.457 4.114,57.345 C3.826,58.233 4.312,59.185 5.199,59.474 L26.283,66.325 C26.574,65.232 26.901,64.153 27.252,63.086 L6.244,56.26" id="Fill-143" fill="#FFF99A"></path>
        <path d="M2.013,89.79 C1.085,89.887 0.412,90.718 0.509,91.647 C0.601,92.515 1.334,93.16 2.188,93.16 L2.366,93.151 L25.005,90.771 C24.832,89.663 24.69,88.545 24.579,87.418 L2.013,89.79" id="Fill-144" fill="#FFF99A"></path>
        <path d="M54.283,143.97 C53.907,144.824 54.295,145.821 55.149,146.197 C55.37,146.295 55.601,146.341 55.829,146.341 C56.478,146.341 57.097,145.964 57.376,145.332 L61.304,136.414 C60.257,135.991 59.222,135.545 58.205,135.065 L54.283,143.97" id="Fill-145" fill="#FFF99A"></path>
        <path d="M14.612,73.976 C13.676,73.871 12.852,74.55 12.753,75.477 C12.654,76.405 13.326,77.238 14.254,77.337 L24.374,78.417 C24.434,77.285 24.533,76.163 24.655,75.049 L14.612,73.976" id="Fill-146" fill="#FFF99A"></path>
        <path d="M23.577,47.154 C22.766,46.693 21.735,46.974 21.272,47.785 C20.81,48.596 21.093,49.627 21.904,50.09 L30.58,55.035 C31.087,54.026 31.624,53.035 32.186,52.061 L23.577,47.154" id="Fill-148" fill="#FFF99A"></path>
        <path d="M64.453,162.105 C64.259,163.018 64.842,163.915 65.754,164.109 C65.873,164.134 65.991,164.146 66.107,164.146 C66.888,164.146 67.59,163.602 67.758,162.808 L72.667,139.713 C71.554,139.509 70.452,139.277 69.362,139.011 L64.453,162.105" id="Fill-149" fill="#FFF99A"></path>
        <path d="M81.195,140.652 L81.175,150.702 C81.173,151.635 81.927,152.393 82.861,152.395 L82.864,152.395 C83.796,152.395 84.552,151.641 84.554,150.709 L84.574,140.679 C84.191,140.687 83.812,140.708 83.427,140.708 C82.679,140.708 81.937,140.679 81.195,140.652" id="Fill-154" fill="#FFF99A"></path>
        <path d="M84.69,22.464 L84.69,1.721 C84.69,0.788 83.933,0.032 83,0.032 C82.067,0.032 81.31,0.788 81.31,1.721 L81.31,22.485 C82.014,22.461 82.717,22.432 83.427,22.432 C83.851,22.432 84.268,22.455 84.69,22.464" id="Fill-161" fill="#FFF99A"></path>
        <path d="M23.746,27.35 C23.054,26.727 21.985,26.782 21.36,27.475 C20.735,28.169 20.791,29.237 21.485,29.862 L37.52,44.3 C38.232,43.425 38.962,42.567 39.721,41.734 L23.746,27.35" id="Fill-162" fill="#FFF99A"></path>
        <path d="M51.494,8.059 C51.114,7.206 50.114,6.822 49.263,7.202 C48.411,7.582 48.027,8.581 48.407,9.433 L56.976,28.68 C57.982,28.176 59,27.694 60.037,27.247 L51.494,8.059" id="Fill-163" fill="#FFF99A"></path>
        <path d="M43.114,25.379 C42.564,24.625 41.507,24.459 40.753,25.009 C39.999,25.558 39.834,26.615 40.383,27.37 L46.329,35.528 C47.206,34.821 48.105,34.142 49.022,33.485 L43.114,25.379" id="Fill-164" fill="#FFF99A"></path>
        <path d="M70.014,13.773 C69.82,12.861 68.923,12.278 68.01,12.472 C67.097,12.666 66.514,13.563 66.708,14.476 L68.789,24.261 C69.876,23.984 70.978,23.746 72.088,23.53 L70.014,13.773" id="Fill-165" fill="#FFF99A"></path>
        <path d="M130.762,150.403 C130.24,150.403 129.724,150.161 129.393,149.706 L115.827,131.034 C116.771,130.415 117.7,129.777 118.604,129.106 L132.128,147.72 C132.346,148.021 132.451,148.369 132.45,148.715 C132.449,149.236 132.208,149.75 131.754,150.08 C131.454,150.298 131.106,150.403 130.762,150.403" id="Fill-169" fill="#FFE64D"></path>
        <path d="M110.744,146.904 C110.098,146.904 109.48,146.53 109.2,145.902 L105.058,136.608 C106.109,136.195 107.146,135.754 108.167,135.283 L112.287,144.526 C112.386,144.749 112.434,144.982 112.434,145.211 C112.434,145.859 112.061,146.477 111.432,146.757 C111.208,146.857 110.974,146.904 110.744,146.904" id="Fill-170" fill="#FFE64D"></path>
        <path d="M99.892,164.146 C99.111,164.146 98.41,163.602 98.241,162.808 L93.364,139.861 C94.48,139.672 95.584,139.45 96.678,139.199 L101.546,162.105 C101.571,162.222 101.583,162.34 101.584,162.455 C101.585,163.237 101.04,163.94 100.245,164.109 C100.127,164.134 100.008,164.146 99.892,164.146" id="Fill-171" fill="#FFE64D"></path>
        <path d="M153.368,125.294 C153.081,125.294 152.79,125.221 152.524,125.067 L133.003,113.797 C133.617,112.853 134.204,111.891 134.765,110.912 L154.214,122.141 C154.757,122.454 155.06,123.024 155.059,123.609 C155.059,123.894 154.986,124.184 154.833,124.449 C154.52,124.991 153.952,125.294 153.368,125.294" id="Fill-172" fill="#FFE64D"></path>
        <path d="M148.62,106.071 C148.447,106.071 148.27,106.044 148.096,105.987 L138.59,102.886 C138.995,101.837 139.376,100.777 139.722,99.701 L149.144,102.774 C149.858,103.007 150.311,103.67 150.31,104.383 C150.31,104.555 150.283,104.731 150.226,104.904 C149.994,105.618 149.332,106.071 148.62,106.071" id="Fill-173" fill="#FFE64D"></path>
        <path d="M140.499,66.071 C140.203,64.979 139.874,63.901 139.518,62.836 L159.756,56.26 C159.929,56.204 160.105,56.178 160.277,56.178 C160.991,56.178 161.653,56.63 161.886,57.345 C161.942,57.518 161.969,57.694 161.969,57.867 C161.969,58.579 161.515,59.242 160.801,59.474 L140.499,66.071" id="Fill-174" fill="#FFE64D"></path>
        <path d="M142.486,78.498 C142.428,77.366 142.331,76.244 142.21,75.129 L151.966,74.116 C152.026,74.11 152.085,74.107 152.144,74.107 C153.001,74.107 153.73,74.754 153.821,75.622 C153.827,75.68 153.83,75.738 153.83,75.795 C153.832,76.652 153.185,77.387 152.315,77.478 L142.486,78.498" id="Fill-175" fill="#FFE64D"></path>
        <path d="M135.946,54.394 C135.427,53.392 134.884,52.404 134.31,51.437 L142.707,46.595 C142.973,46.441 143.263,46.368 143.549,46.368 C144.133,46.368 144.702,46.672 145.015,47.214 C145.168,47.48 145.24,47.769 145.241,48.055 C145.242,48.64 144.938,49.209 144.395,49.522 L135.946,54.394" id="Fill-176" fill="#FFE64D"></path>
        <path d="M128.975,43.854 C128.256,42.986 127.506,42.145 126.739,41.32 L142.254,27.35 C142.576,27.06 142.981,26.916 143.383,26.916 C143.845,26.916 144.306,27.105 144.64,27.475 C144.93,27.798 145.074,28.201 145.074,28.603 C145.075,29.066 144.886,29.528 144.515,29.862 L128.975,43.854" id="Fill-177" fill="#FFE64D"></path>
        <path d="M163.812,93.16 L163.634,93.151 L141.834,90.859 C142.008,89.751 142.156,88.634 142.269,87.507 L163.987,89.79 C164.853,89.881 165.497,90.611 165.5,91.463 C165.5,91.524 165.497,91.585 165.491,91.647 C165.399,92.515 164.666,93.16 163.812,93.16" id="Fill-178" fill="#FFE64D"></path>
        <path d="M133.835,130.57 C133.431,130.57 133.026,130.426 132.703,130.135 L125.238,123.393 C126.035,122.597 126.801,121.771 127.552,120.93 L134.968,127.627 C135.338,127.961 135.526,128.423 135.525,128.886 C135.524,129.288 135.38,129.691 135.09,130.013 C134.756,130.383 134.296,130.57 133.835,130.57" id="Fill-179" fill="#FFE64D"></path>
        <path d="M97.259,24.075 C96.168,23.813 95.065,23.585 93.951,23.384 L95.996,13.773 C96.165,12.978 96.867,12.435 97.648,12.435 C97.764,12.435 97.882,12.447 98,12.472 C98.796,12.641 99.34,13.344 99.339,14.125 C99.339,14.241 99.326,14.358 99.301,14.476 L97.259,24.075" id="Fill-180" fill="#FFE64D"></path>
        <path d="M109.183,28.323 C108.171,27.833 107.141,27.375 106.099,26.942 L114.506,8.059 C114.786,7.429 115.404,7.056 116.051,7.056 C116.28,7.056 116.514,7.103 116.737,7.202 C117.366,7.483 117.74,8.1 117.74,8.747 C117.74,8.977 117.692,9.21 117.593,9.433 L109.183,28.323" id="Fill-181" fill="#FFE64D"></path>
        <path d="M119.931,35.061 C119.046,34.365 118.142,33.693 117.217,33.047 L122.894,25.24 C123.225,24.785 123.74,24.544 124.263,24.544 C124.607,24.544 124.955,24.649 125.255,24.867 C125.709,25.197 125.95,25.711 125.951,26.233 C125.951,26.578 125.846,26.927 125.628,27.227 L119.931,35.061" id="Fill-182" fill="#FFE64D"></path>
        <path d="M84.69,22.464 C84.268,22.455 83.851,22.432 83.427,22.432 C83.323,22.432 83.218,22.432 83.114,22.434 L83.114,0.043 C83.965,0.101 84.646,0.782 84.688,1.638 C84.688,1.642 84.688,1.645 84.688,1.648 C84.688,1.648 84.688,1.649 84.688,1.65 C84.688,1.652 84.688,1.655 84.689,1.658 C84.689,1.659 84.689,1.66 84.689,1.661 C84.689,1.663 84.689,1.666 84.689,1.669 C84.689,1.67 84.689,1.67 84.689,1.671 C84.689,1.674 84.689,1.676 84.689,1.679 C84.689,1.68 84.689,1.682 84.689,1.683 C84.689,1.685 84.689,1.687 84.689,1.689 C84.689,1.691 84.689,1.693 84.69,1.695 C84.69,1.696 84.69,1.698 84.69,1.7 C84.69,1.702 84.69,1.705 84.69,1.707 C84.69,1.708 84.69,1.709 84.69,1.711 C84.69,1.714 84.69,1.718 84.69,1.721 L84.69,22.464" id="Fill-186" fill="#FFE64D"></path>
        <g id="Group-190" transform="translate(83.000000, 140.000000)">
            <mask id="mask-2" fill="white">
                <use xlink:href="#path-1"></use>
            </mask>
            <g id="Clip-189"></g>
            <path d="M1.552,10.788 L1.552,10.787 L1.552,10.788 M1.552,10.779 C1.552,10.778 1.552,10.778 1.552,10.777 C1.552,10.778 1.552,10.778 1.552,10.779 M1.553,10.77 C1.553,10.768 1.553,10.767 1.553,10.766 C1.553,10.767 1.553,10.768 1.553,10.77 M1.553,10.76 C1.553,10.759 1.553,10.757 1.553,10.756 C1.553,10.757 1.553,10.758 1.553,10.76 M1.553,10.75 C1.553,10.748 1.553,10.746 1.554,10.745 C1.553,10.746 1.553,10.748 1.553,10.75 M1.554,10.74 C1.554,10.738 1.554,10.736 1.554,10.734 C1.554,10.736 1.554,10.738 1.554,10.74 M1.554,10.729 C1.554,10.727 1.554,10.725 1.554,10.722 C1.554,10.725 1.554,10.727 1.554,10.729 M1.554,10.719 C1.554,10.716 1.554,10.712 1.554,10.709 L1.574,0.679 L1.554,10.709 C1.554,10.712 1.554,10.716 1.554,10.719 M0.427,0.708 C0.323,0.708 0.218,0.708 0.114,0.707 L0.114,0.7 C0.219,0.701 0.322,0.708 0.427,0.708 M0.463,0.708 C0.836,0.707 1.203,0.686 1.574,0.679 C1.203,0.686 0.836,0.707 0.463,0.708" id="Fill-188" mask="url(#mask-2)"></path>
        </g>
        <path d="M83.114,152.37 L83.114,140.707 C83.218,140.708 83.323,140.708 83.427,140.708 C83.439,140.708 83.451,140.708 83.463,140.708 C83.836,140.707 84.203,140.686 84.574,140.679 L84.554,150.709 C84.554,150.712 84.554,150.716 84.554,150.719 C84.554,150.72 84.554,150.721 84.554,150.722 C84.554,150.725 84.554,150.727 84.554,150.729 C84.554,150.731 84.554,150.732 84.554,150.734 C84.554,150.736 84.554,150.738 84.554,150.74 C84.554,150.741 84.554,150.743 84.554,150.745 C84.553,150.746 84.553,150.748 84.553,150.75 C84.553,150.752 84.553,150.754 84.553,150.756 C84.553,150.757 84.553,150.759 84.553,150.76 C84.553,150.762 84.553,150.764 84.553,150.766 C84.553,150.767 84.553,150.768 84.553,150.77 C84.553,150.772 84.553,150.774 84.552,150.777 C84.552,150.778 84.552,150.778 84.552,150.779 C84.552,150.782 84.552,150.784 84.552,150.787 L84.552,150.788 C84.513,151.598 83.901,152.252 83.114,152.37" id="Fill-191" fill="#FFE64D"></path>
    </g>
</svg>